<svg id="svg" version="1.1" xmlns="http://www.w3.org/2000/svg" xmlns:xlink="http://www.w3.org/1999/xlink" width="400" height="400" viewBox="0, 0, 400,400"><g id="svgg"><path id="path0" d="M188.400 28.357 C 174.636 36.343,153.955 48.290,131.200 61.402 C 122.730 66.282,113.010 71.890,109.600 73.863 C 106.190 75.836,99.530 79.668,94.800 82.378 C 84.132 88.492,84.568 88.103,86.572 89.722 C 87.436 90.421,88.939 92.074,89.912 93.396 L 91.680 95.800 96.130 96.273 L 100.581 96.746 103.590 95.042 C 105.246 94.105,112.810 89.764,120.400 85.396 C 127.990 81.028,141.760 73.107,151.000 67.795 C 160.240 62.483,175.199 53.875,184.243 48.668 C 193.286 43.461,201.026 39.205,201.443 39.212 C 201.859 39.218,205.425 41.100,209.367 43.393 C 217.415 48.076,216.979 47.997,217.618 44.893 C 218.266 41.740,219.326 39.060,220.991 36.362 C 221.766 35.107,222.400 33.834,222.400 33.534 C 222.400 32.926,202.140 21.177,201.198 21.239 C 200.869 21.261,195.110 24.464,188.400 28.357 M237.200 29.638 C 232.555 30.541,226.284 35.348,223.904 39.830 C 216.259 54.228,228.521 71.365,244.616 68.772 C 246.147 68.525,247.949 68.235,248.619 68.127 C 249.741 67.947,250.001 68.150,251.865 70.666 C 261.993 84.336,271.108 100.372,278.163 116.934 C 281.791 125.450,284.556 132.778,284.254 133.079 C 284.129 133.204,280.544 131.931,276.289 130.250 C 258.867 123.368,243.252 119.057,228.400 117.028 C 225.870 116.683,222.540 116.224,221.000 116.010 C 212.123 114.772,192.090 114.528,181.513 115.527 C 177.602 115.897,177.586 115.890,175.403 112.891 C 168.342 103.186,155.295 101.957,145.524 110.076 L 143.648 111.635 137.674 109.651 C 123.720 105.016,109.620 102.066,95.380 100.802 C 88.543 100.195,88.643 100.229,87.588 98.176 C 80.875 85.124,61.600 89.296,61.600 103.800 C 61.600 116.103,75.581 121.730,84.986 113.213 C 87.145 111.257,87.156 111.253,89.475 111.444 C 105.417 112.758,113.963 114.375,131.923 119.477 C 143.020 122.630,143.014 122.067,132.000 126.338 C 99.944 138.771,79.566 151.753,57.091 174.060 L 48.769 182.321 46.484 181.775 C 26.843 177.080,13.121 200.481,27.140 214.764 C 36.978 224.786,53.392 221.685,59.566 208.638 L 61.251 205.077 69.726 205.332 C 104.500 206.382,137.427 216.866,166.400 236.113 C 173.085 240.553,172.535 239.564,172.233 246.600 C 171.974 252.646,171.853 254.024,170.385 267.723 C 168.332 286.871,163.681 308.527,157.376 328.300 C 154.741 336.564,155.721 336.270,147.241 331.337 C 140.918 327.659,129.114 320.847,112.000 310.998 C 60.431 281.320,62.413 282.471,61.500 281.681 C 60.844 281.114,60.800 279.037,60.800 248.706 L 60.800 216.336 58.100 218.792 C 55.402 221.246,50.389 224.043,47.697 224.597 C 45.736 225.000,45.789 223.993,45.924 258.275 L 46.051 290.350 50.726 293.039 C 53.297 294.518,56.390 296.316,57.600 297.036 C 58.810 297.756,65.020 301.352,71.400 305.027 C 77.780 308.702,83.540 312.021,84.200 312.402 C 84.860 312.784,88.910 315.122,93.200 317.599 C 97.490 320.076,103.340 323.455,106.200 325.107 C 109.060 326.760,115.990 330.762,121.600 334.000 C 127.210 337.238,133.600 340.930,135.800 342.204 C 147.515 348.989,163.800 358.402,173.000 363.706 C 178.720 367.004,187.416 372.032,192.325 374.878 L 201.250 380.055 202.725 379.274 C 203.536 378.845,207.530 376.563,211.600 374.203 C 215.670 371.844,222.330 368.013,226.400 365.690 C 230.470 363.367,233.888 361.394,233.995 361.305 C 234.102 361.216,233.780 360.481,233.279 359.672 C 231.469 356.747,229.830 352.970,229.173 350.213 C 228.379 346.878,228.292 346.858,224.497 349.117 C 213.866 355.444,201.428 362.419,201.041 362.271 C 200.328 361.998,164.273 341.164,163.665 340.675 C 163.233 340.327,163.287 340.186,163.943 339.943 C 166.054 339.162,175.021 306.521,178.212 288.000 C 178.762 284.810,179.290 281.930,179.387 281.600 C 179.774 280.281,181.983 261.410,182.443 255.500 C 183.001 248.331,182.928 248.422,186.024 251.039 C 206.872 268.659,225.666 295.272,236.367 322.325 L 239.265 329.651 237.289 332.525 C 231.039 341.621,232.235 353.453,240.085 360.182 C 257.493 375.105,282.039 355.624,271.749 335.052 L 270.374 332.304 273.951 326.252 C 295.406 289.953,306.309 251.542,307.078 209.552 C 307.405 191.679,306.806 183.245,303.801 163.435 C 303.108 158.865,303.043 157.078,303.576 157.267 C 307.325 158.595,330.090 178.188,338.124 187.000 C 344.826 194.351,344.571 193.929,343.824 196.442 C 340.291 208.340,351.998 218.646,362.932 213.263 C 376.026 206.817,371.811 188.099,357.085 187.293 L 353.570 187.101 350.485 183.650 C 338.875 170.665,326.745 159.825,313.300 150.419 C 310.385 148.380,307.996 146.597,307.992 146.456 C 307.775 139.438,304.235 134.095,298.390 131.964 C 295.539 130.925,295.543 130.930,294.399 127.400 C 288.240 108.397,275.174 83.395,261.755 64.935 C 258.505 60.465,258.444 60.267,259.602 57.997 C 267.073 43.351,253.705 26.428,237.200 29.638 M264.168 58.593 C 263.399 59.767,262.699 58.488,270.600 70.338 C 273.680 74.957,276.920 79.874,277.800 81.265 L 279.400 83.793 291.600 90.835 C 298.310 94.708,312.260 102.753,322.600 108.713 L 341.400 119.550 341.600 143.955 L 341.800 168.360 346.805 173.480 C 349.558 176.296,352.655 179.545,353.688 180.700 C 357.448 184.906,357.200 187.348,357.200 146.173 L 357.200 110.811 355.700 109.842 C 354.875 109.309,344.030 103.034,331.600 95.897 C 309.237 83.057,275.494 63.624,268.668 59.654 C 264.530 57.247,264.980 57.353,264.168 58.593 M205.096 68.948 C 196.773 72.050,199.202 84.400,208.135 84.400 C 215.954 84.400,218.829 73.564,212.069 69.575 C 210.243 68.498,207.069 68.212,205.096 68.948 M51.000 107.660 C 48.360 109.214,46.068 110.692,45.906 110.943 C 45.744 111.194,45.609 125.922,45.606 143.671 C 45.600 176.957,45.610 177.200,47.039 177.200 C 47.139 177.200,50.249 174.185,53.950 170.500 L 60.681 163.800 60.907 141.809 L 61.133 119.818 62.194 118.972 L 63.255 118.126 61.022 115.163 C 58.935 112.395,57.761 109.688,57.004 105.900 C 56.701 104.381,56.434 104.459,51.000 107.660 M207.638 126.403 C 231.048 127.497,254.604 132.977,275.091 142.094 C 279.461 144.039,279.587 144.131,279.817 145.546 C 280.801 151.617,284.017 155.978,289.003 158.001 C 291.577 159.046,291.438 158.695,292.962 168.000 C 300.672 215.079,294.849 255.397,273.232 304.600 C 270.332 311.200,267.745 317.095,267.482 317.700 C 266.499 319.966,266.419 318.296,266.508 297.300 C 266.606 274.427,266.463 271.676,264.555 259.600 C 262.260 245.079,257.421 227.909,252.323 216.200 C 249.152 208.917,248.585 207.702,246.069 202.800 C 231.535 174.475,213.201 153.604,184.600 132.825 C 177.864 127.931,176.898 127.113,177.575 126.879 C 177.860 126.781,189.561 126.309,197.600 126.071 C 198.590 126.042,203.107 126.191,207.638 126.403 M144.771 138.144 C 148.706 141.969,152.255 143.777,156.961 144.351 L 159.000 144.600 160.109 147.907 C 166.687 167.525,172.301 201.623,172.386 222.476 C 172.404 226.856,172.557 226.812,167.715 223.796 C 144.190 209.138,115.627 198.856,90.000 195.821 C 87.030 195.469,83.160 194.994,81.400 194.764 C 79.640 194.535,72.839 194.242,66.287 194.114 C 59.734 193.986,54.281 193.730,54.167 193.546 C 53.921 193.149,62.315 184.100,67.660 179.000 C 87.309 160.251,110.144 146.163,135.800 136.962 C 141.874 134.783,141.226 134.698,144.771 138.144 M178.829 142.653 C 214.984 168.038,239.982 204.228,250.354 246.200 C 252.885 256.441,253.501 260.248,255.188 276.068 C 256.296 286.467,255.448 303.108,252.774 323.400 C 252.120 328.364,252.063 328.550,251.384 327.986 C 251.063 327.720,250.800 327.348,250.800 327.160 C 250.800 326.708,241.672 306.113,239.999 302.792 C 227.978 278.918,210.470 256.901,190.077 240.011 C 186.461 237.016,183.499 234.261,183.410 233.811 C 183.322 233.365,183.148 227.870,183.023 221.600 C 182.514 196.128,178.512 170.707,171.425 147.934 C 169.240 140.909,169.256 141.887,171.300 140.440 C 173.572 138.830,173.250 138.736,178.829 142.653 M341.594 246.500 C 341.591 265.475,341.456 281.188,341.294 281.418 C 341.132 281.648,334.160 285.782,325.800 290.605 C 317.440 295.429,305.110 302.552,298.400 306.436 L 286.200 313.496 282.400 320.448 C 280.309 324.272,278.026 328.329,277.325 329.464 C 275.708 332.085,275.679 332.255,276.506 334.300 C 277.444 336.620,274.441 338.023,299.600 323.517 C 303.230 321.424,312.680 315.977,320.600 311.413 C 328.520 306.849,339.140 300.728,344.200 297.811 C 349.260 294.894,354.170 292.078,355.111 291.554 C 357.395 290.280,357.234 293.303,357.110 254.205 L 357.000 219.410 354.200 218.906 C 350.521 218.244,346.883 216.419,344.375 213.976 C 343.260 212.889,342.179 212.000,341.973 212.000 C 341.745 212.000,341.598 225.414,341.594 246.500 M125.689 249.247 C 121.024 251.557,120.862 258.111,125.408 260.685 C 131.836 264.326,138.323 256.051,133.275 250.651 C 131.112 248.337,128.503 247.855,125.689 249.247 M119.000 276.750 C 108.831 279.449,105.604 292.095,113.314 299.027 C 123.701 308.365,139.673 296.755,133.820 284.122 C 131.241 278.556,124.615 275.260,119.000 276.750 " stroke="none" fill="#3764a0" fill-rule="evenodd"></path><path id="path1" d="M176.000 0.279 C 174.351 0.367,172.830 0.610,172.620 0.820 C 172.411 1.029,171.117 1.200,169.744 1.200 C 168.371 1.200,167.136 1.380,167.000 1.600 C 166.864 1.820,165.964 2.000,165.000 2.000 C 164.036 2.000,163.136 2.180,163.000 2.400 C 162.864 2.620,161.773 2.800,160.576 2.800 C 159.379 2.800,158.400 2.980,158.400 3.200 C 158.400 3.420,157.781 3.600,157.024 3.600 C 156.267 3.600,155.536 3.780,155.400 4.000 C 155.264 4.220,154.443 4.400,153.576 4.400 C 152.709 4.400,152.000 4.580,152.000 4.800 C 152.000 5.020,151.280 5.200,150.400 5.200 C 149.520 5.200,148.800 5.380,148.800 5.600 C 148.800 5.820,148.170 6.000,147.400 6.000 C 146.630 6.000,146.000 6.180,146.000 6.400 C 146.000 6.620,145.370 6.800,144.600 6.800 C 143.830 6.800,143.200 6.980,143.200 7.200 C 143.200 7.420,142.570 7.600,141.800 7.600 C 141.030 7.600,140.400 7.780,140.400 8.000 C 140.400 8.220,139.975 8.400,139.456 8.400 C 138.937 8.400,136.372 9.133,133.756 10.030 C 131.140 10.926,128.595 11.757,128.100 11.876 C 127.605 11.996,127.200 12.252,127.200 12.447 C 127.200 12.641,126.761 12.800,126.224 12.800 C 125.687 12.800,125.136 12.980,125.000 13.200 C 124.864 13.420,124.403 13.600,123.976 13.600 C 123.549 13.600,123.200 13.780,123.200 14.000 C 123.200 14.220,122.840 14.400,122.400 14.400 C 121.960 14.400,121.600 14.580,121.600 14.800 C 121.600 15.020,121.161 15.200,120.624 15.200 C 120.087 15.200,119.536 15.380,119.400 15.600 C 119.264 15.820,118.803 16.000,118.376 16.000 C 117.949 16.000,117.600 16.180,117.600 16.400 C 117.600 16.620,117.240 16.800,116.800 16.800 C 116.360 16.800,116.000 16.980,116.000 17.200 C 116.000 17.420,115.640 17.600,115.200 17.600 C 114.760 17.600,114.400 17.780,114.400 18.000 C 114.400 18.220,113.950 18.400,113.400 18.400 C 112.850 18.400,112.400 18.580,112.400 18.800 C 112.400 19.020,112.040 19.200,111.600 19.200 C 111.160 19.200,110.800 19.380,110.800 19.600 C 110.800 19.820,110.575 20.004,110.300 20.009 C 110.025 20.014,109.350 20.370,108.800 20.800 C 108.250 21.230,107.519 21.586,107.175 21.591 C 106.832 21.596,106.164 21.960,105.692 22.400 C 105.220 22.840,104.556 23.200,104.217 23.200 C 103.878 23.200,103.600 23.380,103.600 23.600 C 103.600 23.820,103.255 24.000,102.833 24.000 C 102.412 24.000,102.007 24.139,101.933 24.309 C 101.860 24.480,100.450 25.318,98.800 26.172 C 95.591 27.834,92.285 29.947,92.067 30.477 C 91.993 30.655,91.588 30.800,91.167 30.800 C 90.745 30.800,90.400 30.950,90.400 31.132 C 90.400 31.315,89.905 31.719,89.300 32.030 C 88.695 32.340,87.909 32.911,87.553 33.297 C 87.197 33.684,86.652 34.000,86.341 34.000 C 86.031 34.000,85.517 34.360,85.200 34.800 C 84.883 35.240,84.438 35.600,84.212 35.601 C 83.985 35.601,83.170 36.141,82.400 36.800 C 81.630 37.459,80.841 37.999,80.647 37.999 C 80.453 38.000,80.003 38.320,79.647 38.712 C 79.291 39.104,77.560 40.491,75.800 41.796 C 74.040 43.100,72.123 44.670,71.540 45.284 C 70.956 45.898,70.311 46.400,70.105 46.400 C 69.899 46.400,67.881 48.200,65.620 50.400 C 63.359 52.600,61.437 54.400,61.349 54.400 C 61.136 54.400,54.400 61.141,54.400 61.355 C 54.400 61.446,52.600 63.365,50.400 65.620 C 48.200 67.874,46.400 69.890,46.400 70.099 C 46.400 70.308,45.891 70.956,45.270 71.540 C 44.648 72.123,43.479 73.542,42.672 74.693 C 40.999 77.078,40.181 78.106,38.900 79.432 C 38.405 79.944,38.000 80.553,38.000 80.785 C 38.000 81.017,37.460 81.772,36.800 82.463 C 36.140 83.154,35.600 83.922,35.600 84.171 C 35.600 84.420,35.240 84.883,34.800 85.200 C 34.360 85.517,34.000 86.031,34.000 86.341 C 34.000 86.652,33.684 87.197,33.297 87.553 C 32.911 87.909,32.340 88.695,32.030 89.300 C 31.719 89.905,31.315 90.400,31.132 90.400 C 30.950 90.400,30.800 90.745,30.800 91.167 C 30.800 91.588,30.655 91.993,30.477 92.067 C 29.949 92.284,27.832 95.586,26.161 98.800 C 25.302 100.450,24.465 101.860,24.300 101.933 C 24.135 102.007,24.000 102.412,24.000 102.833 C 24.000 103.255,23.820 103.600,23.600 103.600 C 23.380 103.600,23.200 103.960,23.200 104.400 C 23.200 104.840,23.020 105.200,22.800 105.200 C 22.580 105.200,22.400 105.560,22.400 106.000 C 22.400 106.440,22.254 106.800,22.075 106.800 C 21.896 106.800,21.502 107.430,21.200 108.200 C 20.898 108.970,20.504 109.600,20.325 109.600 C 20.146 109.600,20.000 109.870,20.000 110.200 C 20.000 110.530,19.820 110.800,19.600 110.800 C 19.380 110.800,19.200 111.250,19.200 111.800 C 19.200 112.350,19.020 112.800,18.800 112.800 C 18.580 112.800,18.400 113.160,18.400 113.600 C 18.400 114.040,18.220 114.400,18.000 114.400 C 17.780 114.400,17.600 114.760,17.600 115.200 C 17.600 115.640,17.420 116.000,17.200 116.000 C 16.980 116.000,16.800 116.360,16.800 116.800 C 16.800 117.240,16.620 117.600,16.400 117.600 C 16.180 117.600,16.000 117.872,16.000 118.205 C 16.000 118.793,15.833 119.218,14.862 121.095 C 14.608 121.587,14.400 122.262,14.400 122.595 C 14.400 122.928,14.253 123.200,14.072 123.200 C 13.892 123.200,13.500 124.100,13.200 125.200 C 12.900 126.300,12.529 127.200,12.374 127.200 C 12.220 127.200,11.996 127.605,11.876 128.100 C 11.757 128.595,10.926 131.140,10.030 133.756 C 9.133 136.372,8.400 138.937,8.400 139.456 C 8.400 139.975,8.220 140.400,8.000 140.400 C 7.780 140.400,7.600 141.030,7.600 141.800 C 7.600 142.570,7.420 143.200,7.200 143.200 C 6.980 143.200,6.800 143.830,6.800 144.600 C 6.800 145.370,6.620 146.000,6.400 146.000 C 6.180 146.000,6.000 146.529,6.000 147.176 C 6.000 147.823,5.820 148.464,5.600 148.600 C 5.380 148.736,5.200 149.557,5.200 150.424 C 5.200 151.291,5.020 152.000,4.800 152.000 C 4.580 152.000,4.400 152.709,4.400 153.576 C 4.400 154.443,4.220 155.264,4.000 155.400 C 3.780 155.536,3.600 156.267,3.600 157.024 C 3.600 157.781,3.420 158.400,3.200 158.400 C 2.978 158.400,2.800 159.467,2.800 160.800 C 2.800 162.133,2.622 163.200,2.400 163.200 C 2.180 163.200,2.000 163.974,2.000 164.920 C 2.000 165.866,1.835 166.811,1.632 167.020 C 1.430 167.229,1.167 168.570,1.049 170.000 C 0.930 171.430,0.661 174.220,0.451 176.200 C -0.045 180.879,-0.045 219.121,0.451 223.800 C 0.661 225.780,0.930 228.570,1.049 230.000 C 1.167 231.430,1.430 232.771,1.632 232.980 C 1.835 233.189,2.000 234.134,2.000 235.080 C 2.000 236.026,2.180 236.800,2.400 236.800 C 2.622 236.800,2.800 237.867,2.800 239.200 C 2.800 240.533,2.978 241.600,3.200 241.600 C 3.420 241.600,3.600 242.219,3.600 242.976 C 3.600 243.733,3.780 244.464,4.000 244.600 C 4.220 244.736,4.400 245.557,4.400 246.424 C 4.400 247.291,4.580 248.000,4.800 248.000 C 5.020 248.000,5.200 248.810,5.200 249.800 C 5.200 250.790,5.380 251.600,5.600 251.600 C 5.820 251.600,6.000 252.140,6.000 252.800 C 6.000 253.460,6.180 254.000,6.400 254.000 C 6.620 254.000,6.800 254.630,6.800 255.400 C 6.800 256.170,6.980 256.800,7.200 256.800 C 7.420 256.800,7.600 257.430,7.600 258.200 C 7.600 258.970,7.780 259.600,8.000 259.600 C 8.220 259.600,8.400 260.025,8.400 260.544 C 8.400 261.063,9.133 263.628,10.030 266.244 C 10.926 268.860,11.757 271.405,11.876 271.900 C 11.996 272.395,12.220 272.800,12.374 272.800 C 12.529 272.800,12.900 273.700,13.200 274.800 C 13.500 275.900,13.892 276.800,14.072 276.800 C 14.253 276.800,14.400 277.072,14.400 277.405 C 14.400 277.738,14.580 278.368,14.800 278.805 C 15.020 279.242,15.380 279.958,15.600 280.395 C 15.820 280.832,16.000 281.462,16.000 281.795 C 16.000 282.128,16.180 282.400,16.400 282.400 C 16.620 282.400,16.800 282.760,16.800 283.200 C 16.800 283.640,16.980 284.000,17.200 284.000 C 17.420 284.000,17.600 284.360,17.600 284.800 C 17.600 285.240,17.780 285.600,18.000 285.600 C 18.220 285.600,18.400 285.960,18.400 286.400 C 18.400 286.840,18.580 287.200,18.800 287.200 C 19.020 287.200,19.200 287.650,19.200 288.200 C 19.200 288.750,19.380 289.200,19.600 289.200 C 19.820 289.200,20.000 289.470,20.000 289.800 C 20.000 290.130,20.146 290.400,20.325 290.400 C 20.504 290.400,20.898 291.030,21.200 291.800 C 21.502 292.570,21.896 293.200,22.075 293.200 C 22.254 293.200,22.400 293.560,22.400 294.000 C 22.400 294.440,22.580 294.800,22.800 294.800 C 23.020 294.800,23.200 295.160,23.200 295.600 C 23.200 296.040,23.380 296.400,23.600 296.400 C 23.820 296.400,24.000 296.745,24.000 297.167 C 24.000 297.588,24.135 297.993,24.300 298.067 C 24.465 298.140,25.301 299.550,26.158 301.200 C 27.015 302.850,28.050 304.678,28.458 305.262 C 28.866 305.846,29.200 306.481,29.200 306.673 C 29.200 306.866,29.560 307.283,30.000 307.600 C 30.440 307.917,30.800 308.497,30.800 308.888 C 30.800 309.280,30.950 309.600,31.132 309.600 C 31.315 309.600,31.719 310.095,32.030 310.700 C 32.340 311.305,32.911 312.091,33.297 312.447 C 33.684 312.803,34.000 313.348,34.000 313.659 C 34.000 313.969,34.360 314.483,34.800 314.800 C 35.240 315.117,35.600 315.562,35.601 315.788 C 35.601 316.015,36.141 316.830,36.800 317.600 C 37.459 318.370,37.999 319.143,37.999 319.318 C 38.000 319.493,38.405 320.056,38.900 320.568 C 40.181 321.894,40.999 322.922,42.672 325.307 C 43.479 326.458,44.648 327.877,45.270 328.460 C 45.891 329.044,46.400 329.687,46.400 329.890 C 46.400 330.093,48.020 331.933,50.000 333.978 C 51.980 336.023,53.600 337.771,53.600 337.862 C 53.600 338.337,69.322 353.308,70.087 353.562 C 70.369 353.655,71.050 354.205,71.600 354.782 C 72.150 355.360,74.040 356.900,75.800 358.204 C 77.560 359.509,79.291 360.896,79.647 361.288 C 80.003 361.680,80.453 362.000,80.647 362.001 C 80.841 362.001,81.630 362.541,82.400 363.200 C 83.170 363.859,83.985 364.399,84.212 364.399 C 84.438 364.400,84.883 364.760,85.200 365.200 C 85.517 365.640,85.962 366.000,86.188 366.000 C 86.415 366.001,87.117 366.446,87.749 366.989 C 88.381 367.533,89.236 368.084,89.649 368.216 C 90.062 368.347,90.400 368.622,90.400 368.827 C 90.400 369.032,90.720 369.200,91.112 369.200 C 91.503 369.200,92.083 369.560,92.400 370.000 C 92.717 370.440,93.094 370.800,93.238 370.800 C 93.381 370.800,94.846 371.610,96.493 372.600 C 98.141 373.590,99.693 374.400,99.944 374.400 C 100.195 374.400,100.400 374.580,100.400 374.800 C 100.400 375.020,100.760 375.200,101.200 375.200 C 101.640 375.200,102.000 375.380,102.000 375.600 C 102.000 375.820,102.360 376.000,102.800 376.000 C 103.240 376.000,103.600 376.180,103.600 376.400 C 103.600 376.620,103.878 376.800,104.217 376.800 C 104.556 376.800,105.220 377.160,105.692 377.600 C 106.164 378.040,106.832 378.404,107.175 378.409 C 107.519 378.414,108.250 378.770,108.800 379.200 C 109.350 379.630,110.025 379.986,110.300 379.991 C 110.575 379.996,110.800 380.180,110.800 380.400 C 110.800 380.620,111.160 380.800,111.600 380.800 C 112.040 380.800,112.400 380.980,112.400 381.200 C 112.400 381.420,112.850 381.600,113.400 381.600 C 113.950 381.600,114.400 381.780,114.400 382.000 C 114.400 382.220,114.760 382.400,115.200 382.400 C 115.640 382.400,116.000 382.580,116.000 382.800 C 116.000 383.020,116.360 383.200,116.800 383.200 C 117.240 383.200,117.600 383.380,117.600 383.600 C 117.600 383.820,117.949 384.000,118.376 384.000 C 118.803 384.000,119.264 384.180,119.400 384.400 C 119.536 384.620,120.087 384.800,120.624 384.800 C 121.161 384.800,121.600 384.980,121.600 385.200 C 121.600 385.420,121.960 385.600,122.400 385.600 C 122.840 385.600,123.200 385.780,123.200 386.000 C 123.200 386.220,123.549 386.400,123.976 386.400 C 124.403 386.400,124.864 386.580,125.000 386.800 C 125.136 387.020,125.687 387.200,126.224 387.200 C 126.761 387.200,127.200 387.359,127.200 387.553 C 127.200 387.748,127.605 388.004,128.100 388.124 C 128.595 388.243,131.140 389.074,133.756 389.970 C 136.372 390.867,138.937 391.600,139.456 391.600 C 139.975 391.600,140.400 391.780,140.400 392.000 C 140.400 392.220,140.929 392.400,141.576 392.400 C 142.223 392.400,142.864 392.580,143.000 392.800 C 143.136 393.020,143.766 393.200,144.400 393.200 C 145.034 393.200,145.664 393.380,145.800 393.600 C 145.936 393.820,146.577 394.000,147.224 394.000 C 147.871 394.000,148.400 394.180,148.400 394.400 C 148.400 394.620,149.210 394.800,150.200 394.800 C 151.190 394.800,152.000 394.980,152.000 395.200 C 152.000 395.420,152.709 395.600,153.576 395.600 C 154.443 395.600,155.264 395.780,155.400 396.000 C 155.536 396.220,156.267 396.400,157.024 396.400 C 157.781 396.400,158.400 396.580,158.400 396.800 C 158.400 397.020,159.379 397.200,160.576 397.200 C 161.773 397.200,162.864 397.380,163.000 397.600 C 163.136 397.820,164.036 398.000,165.000 398.000 C 165.964 398.000,166.864 398.180,167.000 398.400 C 167.136 398.620,168.392 398.800,169.790 398.800 C 171.469 398.800,172.390 398.970,172.500 399.300 C 172.744 400.032,227.256 400.032,227.500 399.300 C 227.610 398.970,228.531 398.800,230.210 398.800 C 231.608 398.800,232.864 398.620,233.000 398.400 C 233.136 398.180,234.036 398.000,235.000 398.000 C 235.964 398.000,236.864 397.820,237.000 397.600 C 237.136 397.380,238.227 397.200,239.424 397.200 C 240.621 397.200,241.600 397.020,241.600 396.800 C 241.600 396.580,242.320 396.400,243.200 396.400 C 244.080 396.400,244.800 396.220,244.800 396.000 C 244.800 395.780,245.520 395.600,246.400 395.600 C 247.280 395.600,248.000 395.420,248.000 395.200 C 248.000 394.980,248.810 394.800,249.800 394.800 C 250.790 394.800,251.600 394.620,251.600 394.400 C 251.600 394.180,252.129 394.000,252.776 394.000 C 253.423 394.000,254.064 393.820,254.200 393.600 C 254.336 393.380,255.067 393.200,255.824 393.200 C 256.581 393.200,257.200 393.020,257.200 392.800 C 257.200 392.580,257.740 392.400,258.400 392.400 C 259.060 392.400,259.600 392.220,259.600 392.000 C 259.600 391.780,260.025 391.600,260.544 391.600 C 261.063 391.600,263.628 390.867,266.244 389.970 C 268.860 389.074,271.405 388.243,271.900 388.124 C 272.395 388.004,272.800 387.748,272.800 387.553 C 272.800 387.359,273.239 387.200,273.776 387.200 C 274.313 387.200,274.864 387.020,275.000 386.800 C 275.136 386.580,275.597 386.400,276.024 386.400 C 276.451 386.400,276.800 386.220,276.800 386.000 C 276.800 385.780,277.160 385.600,277.600 385.600 C 278.040 385.600,278.400 385.420,278.400 385.200 C 278.400 384.980,278.940 384.800,279.600 384.800 C 280.260 384.800,280.800 384.620,280.800 384.400 C 280.800 384.180,281.160 384.000,281.600 384.000 C 282.040 384.000,282.400 383.820,282.400 383.600 C 282.400 383.380,282.760 383.200,283.200 383.200 C 283.640 383.200,284.000 383.020,284.000 382.800 C 284.000 382.580,284.349 382.400,284.776 382.400 C 285.203 382.400,285.664 382.220,285.800 382.000 C 285.936 381.780,286.397 381.600,286.824 381.600 C 287.251 381.600,287.600 381.420,287.600 381.200 C 287.600 380.980,287.945 380.800,288.367 380.800 C 288.788 380.800,289.193 380.664,289.267 380.498 C 289.340 380.332,290.615 379.585,292.100 378.838 C 293.585 378.091,294.800 377.327,294.800 377.140 C 294.800 376.953,295.160 376.800,295.600 376.800 C 296.040 376.800,296.400 376.620,296.400 376.400 C 296.400 376.180,296.760 376.000,297.200 376.000 C 297.640 376.000,298.000 375.820,298.000 375.600 C 298.000 375.380,298.345 375.200,298.767 375.200 C 299.188 375.200,299.593 375.065,299.667 374.900 C 299.740 374.735,300.520 374.247,301.400 373.815 C 302.280 373.383,303.752 372.528,304.672 371.915 C 305.592 371.302,306.497 370.800,306.684 370.800 C 306.871 370.800,307.283 370.440,307.600 370.000 C 307.917 369.560,308.497 369.200,308.888 369.200 C 309.280 369.200,309.600 369.032,309.600 368.827 C 309.600 368.622,309.938 368.347,310.351 368.216 C 310.764 368.084,311.619 367.533,312.251 366.989 C 312.883 366.446,313.585 366.001,313.812 366.000 C 314.038 366.000,314.483 365.640,314.800 365.200 C 315.117 364.760,315.657 364.400,316.000 364.400 C 316.343 364.400,316.883 364.040,317.200 363.600 C 317.517 363.160,318.007 362.800,318.288 362.800 C 318.570 362.800,318.800 362.620,318.800 362.400 C 318.800 362.180,319.004 362.000,319.253 362.000 C 319.502 362.000,319.997 361.680,320.353 361.288 C 320.709 360.896,322.440 359.510,324.200 358.208 C 325.960 356.905,327.670 355.552,328.000 355.201 C 328.330 354.850,329.230 354.124,330.000 353.590 C 330.770 353.055,332.606 351.398,334.081 349.909 C 335.555 348.419,336.865 347.200,336.992 347.200 C 337.509 347.200,352.264 331.888,353.629 329.935 C 354.142 329.201,354.850 328.330,355.201 328.000 C 355.552 327.670,356.905 325.960,358.208 324.200 C 359.510 322.440,360.896 320.709,361.288 320.353 C 361.680 319.997,362.000 319.547,362.001 319.353 C 362.001 319.159,362.541 318.370,363.200 317.600 C 363.859 316.830,364.399 316.015,364.399 315.788 C 364.400 315.562,364.760 315.117,365.200 314.800 C 365.640 314.483,366.000 314.038,366.000 313.812 C 366.001 313.585,366.446 312.883,366.989 312.251 C 367.533 311.619,368.084 310.764,368.216 310.351 C 368.347 309.938,368.622 309.600,368.827 309.600 C 369.032 309.600,369.200 309.280,369.200 308.888 C 369.200 308.497,369.560 307.917,370.000 307.600 C 370.440 307.283,370.800 306.871,370.800 306.684 C 370.800 306.497,371.302 305.592,371.915 304.672 C 372.528 303.752,373.383 302.280,373.815 301.400 C 374.247 300.520,374.735 299.740,374.900 299.667 C 375.065 299.593,375.200 299.188,375.200 298.767 C 375.200 298.345,375.380 298.000,375.600 298.000 C 375.820 298.000,376.000 297.640,376.000 297.200 C 376.000 296.760,376.180 296.400,376.400 296.400 C 376.620 296.400,376.800 296.040,376.800 295.600 C 376.800 295.160,376.952 294.800,377.137 294.800 C 377.323 294.800,377.908 293.945,378.437 292.900 C 378.967 291.855,379.535 290.940,379.700 290.867 C 379.865 290.793,380.000 290.388,380.000 289.967 C 380.000 289.545,380.180 289.200,380.400 289.200 C 380.620 289.200,380.800 288.750,380.800 288.200 C 380.800 287.650,380.935 287.199,381.100 287.197 C 381.459 287.193,382.400 285.256,382.400 284.520 C 382.400 284.234,382.580 284.000,382.800 284.000 C 383.020 284.000,383.200 283.640,383.200 283.200 C 383.200 282.760,383.380 282.400,383.600 282.400 C 383.820 282.400,384.000 282.040,384.000 281.600 C 384.000 281.160,384.147 280.800,384.328 280.800 C 384.508 280.800,384.900 279.900,385.200 278.800 C 385.500 277.700,385.892 276.800,386.072 276.800 C 386.253 276.800,386.400 276.451,386.400 276.024 C 386.400 275.597,386.580 275.136,386.800 275.000 C 387.020 274.864,387.200 274.313,387.200 273.776 C 387.200 273.239,387.380 272.800,387.600 272.800 C 387.820 272.800,388.000 272.528,388.000 272.195 C 388.000 271.862,388.178 271.277,388.396 270.895 C 389.059 269.731,391.600 261.504,391.600 260.521 C 391.600 260.015,391.780 259.600,392.000 259.600 C 392.220 259.600,392.400 259.060,392.400 258.400 C 392.400 257.740,392.580 257.200,392.800 257.200 C 393.020 257.200,393.200 256.581,393.200 255.824 C 393.200 255.067,393.380 254.336,393.600 254.200 C 393.820 254.064,394.000 253.423,394.000 252.776 C 394.000 252.129,394.180 251.600,394.400 251.600 C 394.620 251.600,394.800 250.790,394.800 249.800 C 394.800 248.810,394.980 248.000,395.200 248.000 C 395.420 248.000,395.600 247.280,395.600 246.400 C 395.600 245.520,395.780 244.800,396.000 244.800 C 396.220 244.800,396.400 244.080,396.400 243.200 C 396.400 242.320,396.580 241.600,396.800 241.600 C 397.020 241.600,397.200 240.621,397.200 239.424 C 397.200 238.227,397.380 237.136,397.600 237.000 C 397.820 236.864,398.000 235.964,398.000 235.000 C 398.000 234.036,398.180 233.136,398.400 233.000 C 398.620 232.864,398.800 231.608,398.800 230.210 C 398.800 228.531,398.970 227.610,399.300 227.500 C 400.032 227.256,400.032 172.744,399.300 172.500 C 398.970 172.390,398.800 171.469,398.800 169.790 C 398.800 168.392,398.620 167.136,398.400 167.000 C 398.180 166.864,398.000 165.964,398.000 165.000 C 398.000 164.036,397.820 163.136,397.600 163.000 C 397.380 162.864,397.200 161.773,397.200 160.576 C 397.200 159.379,397.020 158.400,396.800 158.400 C 396.580 158.400,396.400 157.680,396.400 156.800 C 396.400 155.920,396.220 155.200,396.000 155.200 C 395.780 155.200,395.600 154.480,395.600 153.600 C 395.600 152.720,395.420 152.000,395.200 152.000 C 394.980 152.000,394.800 151.190,394.800 150.200 C 394.800 149.210,394.620 148.400,394.400 148.400 C 394.180 148.400,394.000 147.871,394.000 147.224 C 394.000 146.577,393.820 145.936,393.600 145.800 C 393.380 145.664,393.200 145.034,393.200 144.400 C 393.200 143.766,393.020 143.136,392.800 143.000 C 392.580 142.864,392.400 142.223,392.400 141.576 C 392.400 140.929,392.220 140.400,392.000 140.400 C 391.780 140.400,391.600 139.985,391.600 139.479 C 391.600 138.496,389.059 130.269,388.396 129.105 C 388.178 128.723,388.000 128.138,388.000 127.805 C 388.000 127.472,387.820 127.200,387.600 127.200 C 387.380 127.200,387.200 126.761,387.200 126.224 C 387.200 125.687,387.020 125.136,386.800 125.000 C 386.580 124.864,386.400 124.403,386.400 123.976 C 386.400 123.549,386.253 123.200,386.072 123.200 C 385.892 123.200,385.500 122.300,385.200 121.200 C 384.900 120.100,384.508 119.200,384.328 119.200 C 384.147 119.200,384.000 118.840,384.000 118.400 C 384.000 117.960,383.820 117.600,383.600 117.600 C 383.380 117.600,383.200 117.240,383.200 116.800 C 383.200 116.360,383.020 116.000,382.800 116.000 C 382.580 116.000,382.400 115.766,382.400 115.480 C 382.400 114.744,381.459 112.807,381.100 112.803 C 380.935 112.801,380.800 112.350,380.800 111.800 C 380.800 111.250,380.620 110.800,380.400 110.800 C 380.180 110.800,380.000 110.455,380.000 110.033 C 380.000 109.612,379.865 109.207,379.700 109.133 C 379.535 109.060,378.967 108.145,378.437 107.100 C 377.908 106.055,377.323 105.200,377.137 105.200 C 376.952 105.200,376.800 104.840,376.800 104.400 C 376.800 103.960,376.620 103.600,376.400 103.600 C 376.180 103.600,376.000 103.240,376.000 102.800 C 376.000 102.360,375.820 102.000,375.600 102.000 C 375.380 102.000,375.200 101.640,375.200 101.200 C 375.200 100.760,375.020 100.400,374.800 100.400 C 374.580 100.400,374.400 100.195,374.400 99.944 C 374.400 99.693,373.590 98.141,372.600 96.493 C 371.610 94.846,370.800 93.381,370.800 93.238 C 370.800 93.094,370.440 92.717,370.000 92.400 C 369.560 92.083,369.200 91.503,369.200 91.112 C 369.200 90.720,369.032 90.400,368.827 90.400 C 368.622 90.400,368.347 90.062,368.216 89.649 C 368.084 89.236,367.533 88.381,366.989 87.749 C 366.446 87.117,366.001 86.415,366.000 86.188 C 366.000 85.962,365.640 85.517,365.200 85.200 C 364.760 84.883,364.400 84.438,364.399 84.212 C 364.399 83.985,363.859 83.170,363.200 82.400 C 362.541 81.630,362.001 80.841,362.001 80.647 C 362.000 80.453,361.680 80.003,361.288 79.647 C 360.896 79.291,359.510 77.560,358.208 75.800 C 356.905 74.040,355.552 72.330,355.201 72.000 C 354.850 71.670,354.122 70.770,353.585 70.000 C 353.047 69.230,351.210 67.197,349.503 65.481 C 347.797 63.766,346.400 62.275,346.400 62.169 C 346.400 61.986,341.648 57.285,334.491 50.385 C 332.771 48.727,330.742 46.936,329.982 46.404 C 329.222 45.873,328.330 45.150,328.000 44.799 C 327.670 44.448,325.960 43.095,324.200 41.792 C 322.440 40.490,320.709 39.104,320.353 38.712 C 319.997 38.320,319.502 38.000,319.253 38.000 C 319.004 38.000,318.800 37.820,318.800 37.600 C 318.800 37.380,318.530 37.200,318.200 37.200 C 317.870 37.200,317.600 37.050,317.600 36.868 C 317.600 36.685,317.105 36.281,316.500 35.970 C 315.895 35.660,315.109 35.089,314.753 34.703 C 314.397 34.316,313.894 34.000,313.635 34.000 C 313.376 34.000,312.728 33.564,312.195 33.031 C 311.662 32.498,310.860 31.946,310.413 31.804 C 309.966 31.662,309.600 31.378,309.600 31.173 C 309.600 30.968,309.280 30.800,308.888 30.800 C 308.497 30.800,307.917 30.440,307.600 30.000 C 307.283 29.560,306.906 29.200,306.762 29.200 C 306.619 29.200,305.154 28.390,303.507 27.400 C 301.859 26.410,300.307 25.600,300.056 25.600 C 299.805 25.600,299.600 25.420,299.600 25.200 C 299.600 24.980,299.240 24.800,298.800 24.800 C 298.360 24.800,298.000 24.620,298.000 24.400 C 298.000 24.180,297.640 24.000,297.200 24.000 C 296.760 24.000,296.400 23.820,296.400 23.600 C 296.400 23.380,296.040 23.200,295.600 23.200 C 295.160 23.200,294.800 23.047,294.800 22.860 C 294.800 22.673,293.585 21.909,292.100 21.162 C 290.615 20.415,289.340 19.668,289.267 19.502 C 289.193 19.336,288.788 19.200,288.367 19.200 C 287.945 19.200,287.600 19.020,287.600 18.800 C 287.600 18.580,287.251 18.400,286.824 18.400 C 286.397 18.400,285.936 18.220,285.800 18.000 C 285.664 17.780,285.203 17.600,284.776 17.600 C 284.349 17.600,284.000 17.420,284.000 17.200 C 284.000 16.980,283.640 16.800,283.200 16.800 C 282.760 16.800,282.400 16.620,282.400 16.400 C 282.400 16.180,282.040 16.000,281.600 16.000 C 281.160 16.000,280.800 15.820,280.800 15.600 C 280.800 15.380,280.260 15.200,279.600 15.200 C 278.940 15.200,278.400 15.020,278.400 14.800 C 278.400 14.580,278.040 14.400,277.600 14.400 C 277.160 14.400,276.800 14.220,276.800 14.000 C 276.800 13.780,276.451 13.600,276.024 13.600 C 275.597 13.600,275.136 13.420,275.000 13.200 C 274.864 12.980,274.313 12.800,273.776 12.800 C 273.239 12.800,272.800 12.641,272.800 12.447 C 272.800 12.252,272.395 11.996,271.900 11.876 C 271.405 11.757,268.860 10.926,266.244 10.030 C 263.628 9.133,261.063 8.400,260.544 8.400 C 260.025 8.400,259.600 8.220,259.600 8.000 C 259.600 7.780,259.071 7.600,258.424 7.600 C 257.777 7.600,257.136 7.420,257.000 7.200 C 256.864 6.980,256.133 6.800,255.376 6.800 C 254.619 6.800,254.000 6.620,254.000 6.400 C 254.000 6.180,253.471 6.000,252.824 6.000 C 252.177 6.000,251.536 5.820,251.400 5.600 C 251.264 5.380,250.443 5.200,249.576 5.200 C 248.709 5.200,248.000 5.020,248.000 4.800 C 248.000 4.580,247.291 4.400,246.424 4.400 C 245.557 4.400,244.736 4.220,244.600 4.000 C 244.464 3.780,243.733 3.600,242.976 3.600 C 242.219 3.600,241.600 3.420,241.600 3.200 C 241.600 2.980,240.621 2.800,239.424 2.800 C 238.227 2.800,237.136 2.620,237.000 2.400 C 236.864 2.180,235.964 2.000,235.000 2.000 C 234.036 2.000,233.136 1.820,233.000 1.600 C 232.864 1.380,231.608 1.200,230.210 1.200 C 228.531 1.200,227.610 1.030,227.500 0.700 C 227.337 0.210,183.933 -0.145,176.000 0.279 M212.098 27.094 C 223.396 33.559,222.985 33.131,220.991 36.362 C 219.326 39.060,218.266 41.740,217.618 44.893 C 216.979 47.997,217.415 48.076,209.367 43.393 C 205.425 41.100,201.859 39.218,201.443 39.212 C 201.026 39.205,193.286 43.461,184.243 48.668 C 175.199 53.875,160.240 62.483,151.000 67.795 C 141.760 73.107,127.990 81.028,120.400 85.396 C 112.810 89.764,105.246 94.105,103.590 95.042 L 100.581 96.746 96.130 96.273 L 91.680 95.800 89.912 93.396 C 88.939 92.074,87.436 90.421,86.572 89.722 C 84.568 88.103,84.132 88.492,94.800 82.378 C 99.530 79.668,106.190 75.836,109.600 73.863 C 113.010 71.890,122.730 66.282,131.200 61.402 C 153.955 48.290,174.636 36.343,188.400 28.357 C 195.110 24.464,200.869 21.261,201.198 21.239 C 201.527 21.218,206.432 23.853,212.098 27.094 M245.644 29.608 C 258.090 31.969,265.349 46.732,259.602 57.997 C 258.444 60.267,258.505 60.465,261.755 64.935 C 275.174 83.395,288.240 108.397,294.399 127.400 C 295.543 130.930,295.539 130.925,298.390 131.964 C 304.235 134.095,307.775 139.438,307.992 146.456 C 307.996 146.597,310.385 148.380,313.300 150.419 C 326.745 159.825,338.875 170.665,350.485 183.650 L 353.570 187.101 357.085 187.293 C 371.811 188.099,376.026 206.817,362.932 213.263 C 351.998 218.646,340.291 208.340,343.824 196.442 C 344.571 193.929,344.826 194.351,338.124 187.000 C 330.090 178.188,307.325 158.595,303.576 157.267 C 303.043 157.078,303.108 158.865,303.801 163.435 C 306.806 183.245,307.405 191.679,307.078 209.552 C 306.309 251.542,295.406 289.953,273.951 326.252 L 270.374 332.304 271.749 335.052 C 282.039 355.624,257.493 375.105,240.085 360.182 C 232.235 353.453,231.039 341.621,237.289 332.525 L 239.265 329.651 236.367 322.325 C 225.666 295.272,206.872 268.659,186.024 251.039 C 182.928 248.422,183.001 248.331,182.443 255.500 C 181.983 261.410,179.774 280.281,179.387 281.600 C 179.290 281.930,178.762 284.810,178.212 288.000 C 175.021 306.521,166.054 339.162,163.943 339.943 C 163.287 340.186,163.233 340.327,163.665 340.675 C 164.273 341.164,200.328 361.998,201.041 362.271 C 201.428 362.419,213.866 355.444,224.497 349.117 C 228.292 346.858,228.379 346.878,229.173 350.213 C 229.830 352.970,231.469 356.747,233.279 359.672 C 233.780 360.481,234.102 361.216,233.995 361.305 C 233.888 361.394,230.470 363.367,226.400 365.690 C 222.330 368.013,215.670 371.844,211.600 374.203 C 207.530 376.563,203.536 378.845,202.725 379.274 L 201.250 380.055 192.325 374.878 C 187.416 372.032,178.720 367.004,173.000 363.706 C 163.800 358.402,147.515 348.989,135.800 342.204 C 133.600 340.930,127.210 337.238,121.600 334.000 C 115.990 330.762,109.060 326.760,106.200 325.107 C 103.340 323.455,97.490 320.076,93.200 317.599 C 88.910 315.122,84.860 312.784,84.200 312.402 C 83.540 312.021,77.780 308.702,71.400 305.027 C 65.020 301.352,58.810 297.756,57.600 297.036 C 56.390 296.316,53.297 294.518,50.726 293.039 L 46.051 290.350 45.924 258.275 C 45.789 223.993,45.736 225.000,47.697 224.597 C 50.389 224.043,55.402 221.246,58.100 218.792 L 60.800 216.336 60.800 248.706 C 60.800 279.037,60.844 281.114,61.500 281.681 C 62.413 282.471,60.431 281.320,112.000 310.998 C 129.114 320.847,140.918 327.659,147.241 331.337 C 155.721 336.270,154.741 336.564,157.376 328.300 C 163.681 308.527,168.332 286.871,170.385 267.723 C 171.853 254.024,171.974 252.646,172.233 246.600 C 172.535 239.564,173.085 240.553,166.400 236.113 C 137.427 216.866,104.500 206.382,69.726 205.332 L 61.251 205.077 59.566 208.638 C 53.392 221.685,36.978 224.786,27.140 214.764 C 13.121 200.481,26.843 177.080,46.484 181.775 L 48.769 182.321 57.091 174.060 C 79.566 151.753,99.944 138.771,132.000 126.338 C 143.014 122.067,143.020 122.630,131.923 119.477 C 113.963 114.375,105.417 112.758,89.475 111.444 C 87.156 111.253,87.145 111.257,84.986 113.213 C 75.581 121.730,61.600 116.103,61.600 103.800 C 61.600 89.296,80.875 85.124,87.588 98.176 C 88.643 100.229,88.543 100.195,95.380 100.802 C 109.620 102.066,123.720 105.016,137.674 109.651 L 143.648 111.635 145.524 110.076 C 155.295 101.957,168.342 103.186,175.403 112.891 C 177.586 115.890,177.602 115.897,181.513 115.527 C 192.090 114.528,212.123 114.772,221.000 116.010 C 222.540 116.224,225.870 116.683,228.400 117.028 C 243.252 119.057,258.867 123.368,276.289 130.250 C 280.544 131.931,284.129 133.204,284.254 133.079 C 284.556 132.778,281.791 125.450,278.163 116.934 C 271.108 100.372,261.993 84.336,251.865 70.666 C 250.001 68.150,249.741 67.947,248.619 68.127 C 247.949 68.235,246.147 68.525,244.616 68.772 C 236.017 70.157,227.343 65.642,223.622 57.845 C 216.516 42.958,229.339 26.516,245.644 29.608 M268.668 59.654 C 275.494 63.624,309.237 83.057,331.600 95.897 C 344.030 103.034,354.875 109.309,355.700 109.842 L 357.200 110.811 357.200 146.173 C 357.200 187.348,357.448 184.906,353.688 180.700 C 352.655 179.545,349.558 176.296,346.805 173.480 L 341.800 168.360 341.600 143.955 L 341.400 119.550 322.600 108.713 C 312.260 102.753,298.310 94.708,291.600 90.835 L 279.400 83.793 277.800 81.265 C 276.920 79.874,273.680 74.957,270.600 70.338 C 262.699 58.488,263.399 59.767,264.168 58.593 C 264.980 57.353,264.530 57.247,268.668 59.654 M212.069 69.575 C 218.829 73.564,215.954 84.400,208.135 84.400 C 199.202 84.400,196.773 72.050,205.096 68.948 C 207.069 68.212,210.243 68.498,212.069 69.575 M57.004 105.900 C 57.761 109.688,58.935 112.395,61.022 115.163 L 63.255 118.126 62.194 118.972 L 61.133 119.818 60.907 141.809 L 60.681 163.800 53.950 170.500 C 50.249 174.185,47.139 177.200,47.039 177.200 C 45.610 177.200,45.600 176.957,45.606 143.671 C 45.609 125.922,45.744 111.194,45.906 110.943 C 46.283 110.357,55.639 104.838,56.292 104.816 C 56.563 104.807,56.884 105.295,57.004 105.900 M186.863 126.441 C 181.947 126.616,177.768 126.813,177.575 126.879 C 176.898 127.113,177.864 127.931,184.600 132.825 C 213.201 153.604,231.535 174.475,246.069 202.800 C 248.585 207.702,249.152 208.917,252.323 216.200 C 257.421 227.909,262.260 245.079,264.555 259.600 C 266.463 271.676,266.606 274.427,266.508 297.300 C 266.419 318.296,266.499 319.966,267.482 317.700 C 267.745 317.095,270.332 311.200,273.232 304.600 C 294.849 255.397,300.672 215.079,292.962 168.000 C 291.438 158.695,291.577 159.046,289.003 158.001 C 284.017 155.978,280.801 151.617,279.817 145.546 C 279.587 144.131,279.461 144.039,275.091 142.094 C 252.280 131.943,220.592 125.391,197.600 126.071 C 196.610 126.100,191.778 126.267,186.863 126.441 M135.800 136.962 C 110.144 146.163,87.309 160.251,67.660 179.000 C 62.315 184.100,53.921 193.149,54.167 193.546 C 54.281 193.730,59.734 193.986,66.287 194.114 C 72.839 194.242,79.640 194.535,81.400 194.764 C 83.160 194.994,87.030 195.469,90.000 195.821 C 115.627 198.856,144.190 209.138,167.715 223.796 C 172.557 226.812,172.404 226.856,172.386 222.476 C 172.301 201.623,166.687 167.525,160.109 147.907 L 159.000 144.600 156.961 144.351 C 152.255 143.777,148.706 141.969,144.771 138.144 C 141.226 134.698,141.874 134.783,135.800 136.962 M171.300 140.440 C 169.256 141.887,169.240 140.909,171.425 147.934 C 178.512 170.707,182.514 196.128,183.023 221.600 C 183.148 227.870,183.322 233.365,183.410 233.811 C 183.499 234.261,186.461 237.016,190.077 240.011 C 210.470 256.901,227.978 278.918,239.999 302.792 C 241.672 306.113,250.800 326.708,250.800 327.160 C 250.800 327.348,251.063 327.720,251.384 327.986 C 252.063 328.550,252.120 328.364,252.774 323.400 C 255.448 303.108,256.296 286.467,255.188 276.068 C 253.732 262.415,253.606 261.520,251.972 253.200 C 243.378 209.434,216.860 169.355,178.829 142.653 C 173.250 138.736,173.572 138.830,171.300 140.440 M344.375 213.976 C 346.883 216.419,350.521 218.244,354.200 218.906 L 357.000 219.410 357.110 254.205 C 357.234 293.303,357.395 290.280,355.111 291.554 C 354.170 292.078,349.260 294.894,344.200 297.811 C 339.140 300.728,328.520 306.849,320.600 311.413 C 312.680 315.977,303.230 321.424,299.600 323.517 C 274.441 338.023,277.444 336.620,276.506 334.300 C 275.679 332.255,275.708 332.085,277.325 329.464 C 278.026 328.329,280.309 324.272,282.400 320.448 L 286.200 313.496 298.400 306.436 C 305.110 302.552,317.440 295.429,325.800 290.605 C 334.160 285.782,341.132 281.648,341.294 281.418 C 341.456 281.188,341.591 265.475,341.594 246.500 C 341.598 225.414,341.745 212.000,341.973 212.000 C 342.179 212.000,343.260 212.889,344.375 213.976 M130.913 248.951 C 136.021 251.136,136.546 257.840,131.826 260.606 C 126.071 263.979,119.618 257.536,122.989 251.782 C 124.649 248.951,128.062 247.731,130.913 248.951 M127.735 277.787 C 135.681 281.546,137.492 292.079,131.277 298.389 C 122.375 307.427,107.170 299.873,109.197 287.420 C 110.595 278.830,119.814 274.039,127.735 277.787 " stroke="none" fill="#ffffff" fill-rule="evenodd"></path></g></svg>